<?xml version="1.0" encoding="UTF-8"?>
<svg width="180" height="64" viewBox="0 0 180 64" fill="none" xmlns="http://www.w3.org/2000/svg" role="img" aria-labelledby="logoTitle logoDesc">
  <title id="logoTitle">EduFunds Logo</title>
  <desc id="logoDesc">Eule auf einem geöffneten Buch mit aufsteigendem Balkendiagramm</desc>
  <defs>
    <linearGradient id="owlGradient" x1="24" y1="0" x2="24" y2="48" gradientUnits="userSpaceOnUse">
      <stop offset="0" stop-color="#0F3D64" />
      <stop offset="1" stop-color="#164A84" />
    </linearGradient>
    <linearGradient id="chartGradient" x1="54" y1="16" x2="54" y2="48" gradientUnits="userSpaceOnUse">
      <stop offset="0" stop-color="#1E9E6A" />
      <stop offset="1" stop-color="#178257" />
    </linearGradient>
  </defs>
  <g transform="translate(8 4)">
    <path d="M16 6C16 2.686 18.686 0 22 0C23.814 0 25.447 0.777 26.6 2.027C27.753 0.777 29.386 0 31.2 0C34.514 0 37.2 2.686 37.2 6V12.5C37.2 17.994 33.616 22.804 28.292 24.206L24.001 25.353L19.708 24.206C14.384 22.804 10.8 17.994 10.8 12.5V6C10.8 2.686 13.486 0 16.8 0H16Z" fill="url(#owlGradient)"/>
    <circle cx="20.5" cy="10.5" r="3.5" fill="white" />
    <circle cx="31.5" cy="10.5" r="3.5" fill="white" />
    <circle cx="20.5" cy="10.5" r="1.5" fill="#0F3D64" />
    <circle cx="31.5" cy="10.5" r="1.5" fill="#0F3D64" />
    <path d="M25.8 17L24 18.6L22.2 17" stroke="#0F3D64" stroke-width="1.8" stroke-linecap="round" stroke-linejoin="round" />
    <path d="M9 26C14.667 31 20.333 33 26 31C31.667 33 37.333 31 43 26" stroke="#0F3D64" stroke-width="2.4" stroke-linecap="round" stroke-linejoin="round" fill="none" />
    <path d="M6 28L6 34C6 40.627 11.373 46 18 46H30C36.627 46 42 40.627 42 34V28" stroke="#0F3D64" stroke-width="2.4" stroke-linecap="round" stroke-linejoin="round" fill="none" />
    <path d="M45 44L50 36L55 40L60 30L66 34L72 20L78 24" stroke="url(#chartGradient)" stroke-width="4" stroke-linecap="round" stroke-linejoin="round" fill="none" />
    <path d="M46 44C46 44 52 48 60 48C68 48 74 44 74 44" stroke="#1E9E6A" stroke-width="2.4" stroke-linecap="round" stroke-linejoin="round" fill="none" />
  </g>
  <text x="94" y="44" font-family="'Inter', 'Segoe UI', sans-serif" font-size="32" font-weight="700" fill="#0F3D64">EduFunds</text>
</svg>
